HIERARCHY
ROOT Hips
{
    OFFSET   0.000000   0.000000   0.000000
    CHANNELS 6 Xposition Yposition Zposition Xrotation Yrotation Zrotation
    JOINT LeftUpLeg
    {
        OFFSET   0.078795   0.000000   0.000000
        CHANNELS 3 Xrotation Yrotation Zrotation
        JOINT LeftLeg
        {
            OFFSET   0.000000  -0.427566   0.000000
            CHANNELS 3 Xrotation Yrotation Zrotation
            JOINT LeftFoot
            {
                OFFSET   0.000000  -0.394685   0.000000
                CHANNELS 3 Xrotation Yrotation Zrotation
                JOINT LeftToeBase
                {
                    OFFSET   0.000000  -0.039971   0.149173
                    CHANNELS 3 Xrotation Yrotation Zrotation
                }
            }
        }
    }
    JOINT RightUpLeg
    {
        OFFSET  -0.078795   0.000000   0.000000
        CHANNELS 3 Xrotation Yrotation Zrotation
        JOINT RightLeg
        {
            OFFSET   0.000000  -0.427566   0.000000
            CHANNELS 3 Xrotation Yrotation Zrotation
            JOINT RightFoot
            {
                OFFSET   0.000000  -0.394685   0.000000
                CHANNELS 3 Xrotation Yrotation Zrotation
                JOINT RightToeBase
                {
                    OFFSET   0.000000  -0.039971   0.149173
                    CHANNELS 3 Xrotation Yrotation Zrotation
                }
            }
        }
    }
    JOINT Spine
    {
        OFFSET   0.000000   0.001000   0.000000
        CHANNELS 3 Xrotation Yrotation Zrotation
        JOINT Spine1
        {
            OFFSET   0.000000   0.211086   0.000000
            CHANNELS 3 Xrotation Yrotation Zrotation
            JOINT Neck
            {
                OFFSET   0.000000   0.158868   0.000000
                CHANNELS 3 Xrotation Yrotation Zrotation
            }
            JOINT LeftShoulder
            {
                OFFSET   0.000000   0.158868   0.000000
                CHANNELS 3 Xrotation Yrotation Zrotation
                JOINT LeftArm
                {
                    OFFSET   0.189194  -0.000001   0.000000
                    CHANNELS 3 Xrotation Yrotation Zrotation
                    JOINT LeftForeArm
                    {
                        OFFSET   0.272680  -0.000001   0.000000
                        CHANNELS 3 Xrotation Yrotation Zrotation
                        JOINT LeftHand
                        {
                            OFFSET   0.258023  -0.000001   0.000000
                            CHANNELS 3 Xrotation Yrotation Zrotation
                        }
                    }
                }
            }
            JOINT RightShoulder
            {
                OFFSET   0.000000   0.158868   0.000000
                CHANNELS 3 Xrotation Yrotation Zrotation
                JOINT RightArm
                {
                    OFFSET  -0.189194  -0.000001   0.000000
                    CHANNELS 3 Xrotation Yrotation Zrotation
                    JOINT RightForeArm
                    {
                        OFFSET  -0.272680  -0.000001   0.000000
                        CHANNELS 3 Xrotation Yrotation Zrotation
                        JOINT RightHand
                        {
                            OFFSET  -0.258023  -0.000001   0.000000
                            CHANNELS 3 Xrotation Yrotation Zrotation
                        }
                    }
                }
            }
        }
    }
}
MOTION
Frames: 8
Frame Time:   0.016667
 -0.269896   0.916550   2.651601 -175.468857  -0.695230 175.892613 -16.008544   7.607327   8.511401  71.580716  -3.067597   8.646869  13.399786  -4.192116  -1.493537   0.000000   0.000000   0.000000 -10.729526 -10.628196  11.213724  12.531000  -1.459883  -4.260137   1.438285  -0.758447  -4.769735   0.000000   0.000000   0.000000   1.764612  -0.663568   1.286190   7.111551  -2.527392   5.251844  13.755705   5.398379  -3.607167   0.031009  -3.477255 -16.045081   6.213619 -33.353278 -50.012384   1.371921 -35.139149  11.417884   7.040916   2.338051  -3.123790  -1.207935   1.128038  18.762233  19.190672  23.940713  48.943976  -0.621042  21.010320  -3.578918   3.982913   1.375513  -1.263036
 -0.268577   0.918811   2.630281 -175.531175  -0.278408 175.775716 -18.978829   7.361169   8.057581  71.500965  -1.557037   8.657653  10.918098  -3.145920  -1.552726   0.000000   0.000000   0.000000  -8.792831 -10.849149  11.487115  12.006662  -1.013066  -4.288443   0.575347  -0.417789  -4.647857   0.000000   0.000000   0.000000   1.779282  -0.491784   1.286535   7.143337  -1.840285   5.241476  13.477880   5.047714  -3.449493   0.034817  -3.231924 -16.202822   7.162468 -33.665050 -50.206211   1.213820 -33.266957  10.560316   6.216275   2.658011  -3.419377  -1.220380   1.282085  18.859704  19.400310  24.246753  48.501087  -0.621202  21.208744  -3.728339   4.261871   1.456773  -1.416538
 -0.267404   0.920885   2.608893 -175.560852   0.187668 175.683678 -21.843461   7.243998   7.592412  71.131284  -0.060018   8.711763   8.459044  -2.088705  -1.755471   0.000000   0.000000   0.000000  -6.847182 -11.123045  11.726453  11.520376  -0.497075  -4.310685  -0.303511  -0.029370  -4.527837   0.000000   0.000000   0.000000   1.800954  -0.316475   1.279101   7.202698  -1.138454   5.200093  13.202828   4.730376  -3.308510   0.040552  -2.960486 -16.367693   8.153570 -33.968628 -50.354363   1.087299 -31.380619   9.700833   5.340593   2.913986  -3.613488  -1.234215   1.465408  18.941880  19.560593  24.568733  48.083841  -0.617804  21.360381  -3.889686   4.575158   1.530407  -1.592245
 -0.266615   0.921090   2.586480 -175.485191   0.818959 175.471563 -24.191405   7.393632   7.267256  69.123718   0.995558   8.795561   6.721368  -1.256914  -1.497271   0.000000   0.000000   0.000000  -4.909676 -11.525259  11.879340  11.389748   0.168312  -4.161614  -1.343680   0.508905  -4.510000   0.000000   0.000000   0.000000   1.834604  -0.143818   1.286618   7.310791  -0.444370   5.218967  13.043236   4.603622  -3.253538   0.051051  -2.614511 -16.497943   9.270412 -34.050465 -50.446988   0.934742 -29.394318   8.672648   4.418598   2.913707  -3.562538  -1.237036   1.738003  18.799922  19.277012  24.822889  47.972346  -0.609340  21.380421  -4.032226   4.873488   1.522859  -1.650023
 -0.265807   0.921027   2.563941 -175.414459   1.442081 175.236859 -26.453352   7.538227   6.976316  66.897007   1.969944   8.886305   5.050710  -0.481420  -1.187670   0.000000   0.000000   0.000000  -3.005303 -11.881790  12.048657  11.302312   0.799851  -3.995468  -2.414667   1.029167  -4.482166   0.000000   0.000000   0.000000   1.865152   0.026469   1.299014   7.406563   0.240168   5.256557  12.889366   4.495538  -3.212374   0.062002  -2.280449 -16.631499  10.385757 -34.100824 -50.534408   0.817540 -27.410304   7.667748   3.545840   2.932480  -3.551306  -1.237791   1.998026  18.646015  18.968141  25.057044  47.866597  -0.603210  21.432420  -4.163473   5.145981   1.513527  -1.694553
 -0.264892   0.919500   2.540717 -175.385496   2.048090 174.877838 -28.230583   7.615001   6.823865  63.448529   2.519637   8.835089   3.771318   0.036014  -0.711178   0.000000   0.000000   0.000000  -1.269651 -12.011534  12.255601  11.486846   1.255591  -3.753831  -3.626458   1.455029  -4.461563   0.000000   0.000000   0.000000   1.878095   0.186613   1.338174   7.432101   0.883375   5.401061  12.767665   4.463199  -3.243061   0.070903  -2.008871 -16.785659  11.499427 -33.946397 -50.618900   0.695558 -25.423647   6.663971   2.940184   3.062519  -3.770745  -1.228681   2.194114  18.424144  18.533741  25.180002  47.786548  -0.610384  21.649908  -4.229333   5.264052   1.489721  -1.641621
 -0.263931   0.917639   2.517240 -175.368053   2.644158 174.522762 -29.829165   7.681902   6.691866  59.564488   2.937813   8.740454   2.687394   0.468280  -0.223786   0.000000   0.000000   0.000000   0.426192 -12.031934  12.445034  11.693553   1.641159  -3.503137  -4.868447   1.834814  -4.424581   0.000000   0.000000   0.000000   1.885462   0.342646   1.377637   7.434929   1.509379   5.547093  12.641050   4.454878  -3.298913   0.079395  -1.762946 -16.957602  12.598429 -33.728218 -50.707320   0.598434 -23.433535   5.693210   2.449858   3.248253  -4.078673  -1.217450   2.363355  18.201024  18.096130  25.272627  47.680654  -0.623006  21.951294  -4.278762   5.339645   1.468194  -1.576311
 -0.262829   0.915417   2.493068 -175.390559   3.219969 174.311998 -30.922700   7.770016   6.521015  54.492176   3.051192   8.423700   2.307557   0.743150   0.129470   0.000000   0.000000   0.000000   2.089073 -11.701869  12.498341  11.774793   1.817830  -3.274590  -6.116867   2.058302  -4.333800   0.000000   0.000000   0.000000   1.879897   0.488029   1.391706   7.389063   2.089040   5.592921  12.456062   4.485199  -3.420238   0.084649  -1.593657 -17.208376  13.632873 -33.344128 -50.814856   0.498052 -21.417920   4.822257   2.323372   3.619430  -4.656718  -1.206315   2.452437  18.037903  17.776083  25.308891  47.403617  -0.653238  22.541928  -4.300873   5.328043   1.469621  -1.524486
